<svg width="590" height="395" viewBox="0 0 590 395" fill="none" xmlns="http://www.w3.org/2000/svg">
<path d="M289.962 185.04V181.104H280.17V185.424C280.17 187.344 278.538 188.976 276.81 188.976H261.066C259.338 188.976 257.706 187.344 257.706 185.424V154.992C257.706 153.072 259.338 151.44 261.066 151.44H276.81C278.538 151.44 280.17 153.072 280.17 154.992V159.216H289.962V155.856C289.962 148.464 284.49 142.32 276.522 142.32H261.546C253.674 142.32 247.914 147.792 247.914 155.28V185.04C247.914 192.528 253.674 198 261.546 198H276.33C284.202 198 289.962 192.528 289.962 185.04Z" fill="white"/>
<path d="M346.877 151.248V142.32H302.909V151.248H319.709V198H329.981V151.248H346.877Z" fill="white"/>
<path d="M401.101 185.04V178.608C401.101 175.248 399.757 172.368 397.741 170.16C399.757 167.952 401.101 165.072 401.101 161.712V155.28C401.101 147.792 395.341 142.32 387.469 142.32H373.453C365.581 142.32 359.821 147.792 359.821 155.28V159.984H369.421V154.8C369.421 152.88 371.053 151.248 372.781 151.248H388.141C389.869 151.248 391.501 152.88 391.501 154.8V162.288C391.501 164.208 390.157 165.552 389.101 165.552H373.933V174.768H389.101C390.157 174.768 391.501 176.112 391.501 178.032V185.52C391.501 187.44 389.869 189.072 388.141 189.072H372.781C371.053 189.072 369.421 187.44 369.421 185.52V181.104H359.821V185.04C359.821 192.528 365.581 198 373.453 198H387.469C395.341 198 401.101 192.528 401.101 185.04Z" fill="white"/>
<path fill-rule="evenodd" clip-rule="evenodd" d="M90 0C93.0292 0 95.5342 2.24488 95.9419 5.16177H282.058C282.466 2.24488 284.971 0 288 0C291.314 0 294 2.68629 294 6C294 9.04577 291.731 11.5615 288.79 11.9484L283.306 31.1426C285.322 31.5901 286.956 33.0512 287.646 34.9634H313.354C314.188 32.6522 316.401 31 319 31C319.194 31 319.386 31.0092 319.576 31.0273L325.363 10.7723C323.927 9.67607 323 7.94625 323 6C323 2.68629 325.686 0 329 0C332.029 0 334.534 2.24488 334.942 5.16177H577.063C577.471 2.24488 579.976 0 583.005 0C586.319 0 589.005 2.68629 589.005 6C589.005 8.9175 586.923 11.3486 584.163 11.8883V310.664C586.923 311.204 589.005 313.635 589.005 316.553C589.005 319.866 586.319 322.553 583.005 322.553C580.827 322.553 578.921 321.393 577.869 319.657L148.999 342.789C149 342.818 149 342.846 149 342.875C149 346.189 146.314 348.875 143 348.875C140.917 348.875 139.081 347.813 138.006 346.201L48.8098 387.496C48.934 387.976 49 388.48 49 389C49 392.314 46.3137 395 43 395C39.6863 395 37 392.314 37 389C37 387.704 37.4107 386.505 38.1089 385.524L8.11328 348.492C7.45599 348.74 6.7438 348.875 6 348.875C2.68629 348.875 0 346.189 0 342.875C0 339.561 2.68629 336.875 6 336.875C7.31819 336.875 8.53709 337.3 9.5271 338.021L109.081 284.84C108.733 284.081 108.539 283.236 108.539 282.346C108.539 280.428 109.438 278.721 110.838 277.623L91.3272 241.853C90.9002 241.949 90.4561 242 90 242C86.6863 242 84 239.314 84 236C84 233.274 85.8176 230.973 88.3068 230.242V11.7578C85.8176 11.0269 84 8.72572 84 6C84 2.68629 86.6863 0 90 0ZM148.634 340.806C147.791 338.512 145.586 336.875 143 336.875C139.686 336.875 137 339.561 137 342.875C137 343.393 137.066 343.896 137.189 344.375L47.992 385.67C46.916 384.06 45.0818 383 43 383C41.7079 383 40.5112 383.408 39.532 384.103L9.85881 347.47C11.168 346.369 12 344.719 12 342.875C12 341.631 11.6211 340.475 10.9724 339.516L110.213 286.503C111.305 287.639 112.839 288.346 114.539 288.346C117.853 288.346 120.539 285.659 120.539 282.346C120.539 279.032 117.853 276.346 114.539 276.346C113.859 276.346 113.205 276.459 112.595 276.668L93.1865 241.085C94.8766 240.023 96 238.143 96 236C96 232.789 93.4779 230.167 90.3068 230.008V11.9923C93.0854 11.8523 95.3656 9.82218 95.8876 7.16177H282.112C282.573 9.50874 284.402 11.3652 286.734 11.8662L281.254 31.0459C278.292 31.4132 276 33.9389 276 37C276 40.3137 278.686 43 282 43C285.314 43 288 40.3137 288 37L288 36.9634H313L313 37C313 40.3137 315.686 43 319 43C322.314 43 325 40.3137 325 37C325 34.5813 323.569 32.4969 321.507 31.5473L327.173 11.7168C327.749 11.9007 328.363 12 329 12C331.916 12 334.347 9.91949 334.888 7.16177H577.117C577.605 9.64931 579.631 11.5858 582.163 11.9414V310.611C579.248 311.021 577.005 313.525 577.005 316.553C577.005 316.943 577.042 317.325 577.113 317.695L148.634 340.806Z" fill="white"/>
</svg>
